<?xml version="1.0" encoding="UTF-8" standalone="no"?>
<!-- Created with Inkscape (http://www.inkscape.org/) -->

<svg
   version="1.1"
   id="svg1"
   width="1080"
   height="1334"
   viewBox="0 0 1080 1334"
   sodipodi:docname="princeton-03"
   inkscape:version="1.4.2 (ebf0e940d0, 2025-05-08)"
   xmlns:inkscape="http://www.inkscape.org/namespaces/inkscape"
   xmlns:sodipodi="http://sodipodi.sourceforge.net/DTD/sodipodi-0.dtd"
   xmlns="http://www.w3.org/2000/svg"
   xmlns:svg="http://www.w3.org/2000/svg">
  <defs
     id="defs1" />
  <sodipodi:namedview
     id="namedview1"
     pagecolor="#ffffff"
     bordercolor="#cccccc"
     borderopacity="1"
     inkscape:showpageshadow="0"
     inkscape:pageopacity="1"
     inkscape:pagecheckerboard="0"
     inkscape:deskcolor="#d1d1d1"
     inkscape:zoom="0.47826087"
     inkscape:cx="540.5"
     inkscape:cy="667"
     inkscape:window-width="1536"
     inkscape:window-height="891"
     inkscape:window-x="0"
     inkscape:window-y="0"
     inkscape:window-maximized="1"
     inkscape:current-layer="g1" />
  <g
     inkscape:groupmode="layer"
     inkscape:label="Image"
     id="g1">
    <path
       style="fill:#000000"
       d="M 526.0786,1206.9719 C 484.56602,1175.1361 454.32792,1148.5615 416.67856,1110.8263 355.20422,1049.2116 304.21462,983.90753 260.45104,910.74063 175.68502,769.02302 128.12346,618.75424 115.97441,454.27272 c -1.71292,-23.19061 -1.72424,-112.65982 -0.0171,-135 1.56966,-20.54081 3.31321,-39.41032 3.67563,-39.77943 0.15091,-0.15369 7.64863,1.94394 16.66161,4.6614 18.47146,5.56924 33.90288,9.01251 54.38723,12.13563 17.94987,2.7367 56.95782,3.78516 76.5147,2.05657 69.97737,-6.18515 135.99541,-33.09112 189.9853,-77.42943 12.55304,-10.30897 39.31152,-37.63082 48.69064,-49.71576 9.54932,-12.30424 20.14676,-28.12594 29.30936,-43.75809 3.575,-6.09925 6.77254,-11.10784 7.10565,-11.13022 0.3331,-0.0224 4.34484,6.14683 8.91498,13.70933 20.23494,33.48408 38.78143,56.90641 61.55891,77.74267 57.83669,52.90751 127.76423,83.71621 205.64251,90.60203 14.95317,1.32212 56.67957,0.67731 68.77795,-1.06285 25.59205,-3.68101 44.02574,-7.72516 65.96664,-14.47237 6.30666,-1.93941 11.7603,-3.19618 12.11922,-2.79284 0.35891,0.40335 1.39178,9.76325 2.29528,20.79978 8.84076,107.99371 0.27822,217.09261 -25.46293,324.43358 -12.01045,50.08375 -31.78604,110.03754 -51.45618,156 -2.00072,4.675 -4.89126,11.425 -6.42342,15 -21.02115,49.04873 -53.00019,107.10301 -87.22263,158.34251 -9.76842,14.6258 -29.33897,42.2309 -34.49553,48.65757 -0.66197,0.825 -4.67918,6 -8.92714,11.5 -22.36594,28.958 -61.04573,72.684 -86.21612,97.4638 -14.32156,14.0994 -35.06766,33.4278 -49.07534,45.7217 -27.2736,23.9369 -73.41807,60.3776 -76.31106,60.2636 -0.70994,-0.028 -7.86223,-5.0905 -15.894,-11.25 z m 24.01419,-3.3781 c 106.27454,-79.527 200.09378,-183.1633 267.3464,-295.32107 46.52668,-77.59286 81.2219,-157.11781 106.23443,-243.50001 25.97757,-89.71505 39.52655,-186.17762 39.49852,-281.21135 -0.0114,-38.61603 -2.74156,-91.47761 -4.82415,-93.40527 -0.3664,-0.33914 -6.74118,1.13472 -14.16618,3.27525 -51.15802,14.74817 -106.14246,17.61602 -158.5,8.26696 -98.80571,-17.64294 -183.67656,-74.66037 -235.18411,-158 -4.22376,-6.83407 -7.99959,-12.42559 -8.39074,-12.42559 -0.39114,0 -0.97202,0.67976 -1.29084,1.51058 -1.3215,3.44378 -14.56625,23.78306 -22.45919,34.48942 -11.42994,15.50411 -18.02912,23.05661 -34.08179,39.00522 -18.97318,18.85019 -35.88675,32.38544 -57.87862,46.31792 -76.81674,48.6656 -169.44262,65.49149 -259.71471,47.17827 -10.67555,-2.16572 -34.25767,-8.26066 -38.65048,-9.98946 -2.17846,-0.85734 -2.45516,1.08062 -4.4958,31.48805 -2.21709,33.03654 -2.19536,98.9695 0.043,130.5 9.70905,136.76608 43.8065,262.21781 104.23431,383.5 64.54582,129.54731 154.54221,242.99168 267.78265,337.55168 11.75945,9.8196 45.69977,36.417 46.49731,36.4377 0.22604,0.01 3.82604,-2.5448 8,-5.6683 z m -24.41098,-27.0012 c -56.51538,-44.6021 -110.71415,-97.1429 -154.54761,-149.8198 -19.38289,-23.2934 -19.24785,-23.0846 -16.60715,-25.6787 0.73988,-0.7268 15.92738,-15.48977 33.75,-32.80657 17.82262,-17.3169 40.05476,-38.9598 49.40476,-48.0954 9.35,-9.1356 25.76635,-25.1173 36.48079,-35.5148 10.71443,-10.3975 27.58943,-26.8366 37.5,-36.53125 22.54051,-22.04943 29.45831,-28.37336 31.03787,-28.37336 1.09855,0 24.2605,22.26966 89.93567,86.47101 10.42487,10.191 19.46776,18.979 20.0953,19.529 0.62753,0.55 15.94809,15.4474 34.04567,33.1054 18.09759,17.658 35.92246,34.9222 39.61083,38.3649 l 6.70612,6.25947 -8.15135,10.1352 c -40.24241,50.0362 -93.38443,103.4744 -145.22199,146.0315 -17.95828,14.7432 -36.78496,29.5668 -37.53891,29.5571 -0.275,0 -7.7,-5.6887 -16.5,-12.6337 z m 27.17092,-5.0314 c 46.19389,-36.2426 87.99951,-74.9347 128.01924,-118.4851 13.75984,-14.9737 41.30984,-47.5025 41.30984,-48.7752 0,-0.3859 -3.0375,-3.5099 -6.75,-6.94197 -3.7125,-3.4322 -14.86052,-14.1931 -24.77338,-23.9132 -21.36269,-20.9474 -41.3772,-40.4338 -85.94869,-83.6807 -18.13464,-17.5958 -39.21444,-38.06731 -46.844,-45.49231 -7.62957,-7.425 -14.66968,-13.5 -15.64469,-13.5 -0.97647,0 -16.99254,14.81843 -35.656,32.98971 -18.63578,18.1444 -41.97234,40.8694 -51.85903,50.5 -36.11886,35.1835 -55.41154,53.9208 -73.13399,71.0286 -9.96038,9.6149 -18.17288,18.00537 -18.25,18.64527 -0.0771,0.64 4.4431,6.715 10.04493,13.5 34.63848,41.9549 73.40241,81.7107 115.93093,118.8975 17.80137,15.5654 51.52107,42.939 52.89369,42.939 0.45763,0 5.25515,-3.4702 10.66115,-7.7116 z M 260.37039,864.50053 c -40.24774,-73.71351 -72.28101,-154.77531 -92.56005,-234.22781 -5.0468,-19.77316 -9.62853,-39.93511 -9.62853,-42.37041 0,-1.5033 29.80392,-1.62959 384.56739,-1.62959 365.77643,0 384.54321,0.0855 384.07272,1.75 -0.27207,0.9625 -1.91897,8.275 -3.65978,16.25 -6.85575,31.40753 -20.20426,78.14741 -31.27228,109.5 -7.62862,21.60976 -22.40591,59.01221 -29.23656,74 -0.75198,1.65 -4.3402,9.525 -7.97382,17.5 -5.68625,12.48005 -16.77165,34.43319 -31.1773,61.74241 -2.1012,3.9833 -4.27497,7.2458 -4.83059,7.25 -1.25916,0.01 -3.93791,-2.3747 -18.99533,-16.9062 -11.79536,-11.38336 -26.33314,-25.36291 -52.03005,-50.03212 -7.13042,-6.84526 -18.59594,-17.87026 -25.47893,-24.5 -6.88299,-6.62975 -18.36128,-17.67909 -25.5073,-24.55409 -7.14602,-6.875 -18.83949,-18.13424 -25.98547,-25.02054 -7.14599,-6.8863 -24.6927,-23.74716 -38.9927,-37.46857 -29.19214,-28.01101 -43.97612,-42.22848 -62.98423,-60.5707 -19.56094,-18.87568 -25.59321,-24.44019 -26.49466,-24.44019 -0.44958,0 -9.97575,8.77457 -21.16926,19.49904 -26.73983,25.61933 -70.40579,67.58245 -84.85185,81.54289 -6.325,6.11237 -23.425,22.53276 -38,36.48974 -14.575,13.95699 -31.45,30.1444 -37.5,35.97202 -6.05,5.82763 -17.29726,16.64833 -24.99391,24.046 -33.17822,31.88941 -39.61525,38.08987 -50.50609,48.64992 -12.24288,11.8711 -18.18782,17.2723 -19,17.2623 -0.275,0 -2.89014,-4.3838 -5.81142,-9.7341 z m 558.66264,-5.4871 c 3.32512,-5.3801 26.80658,-52.45722 31.79308,-63.74071 18.05784,-40.86141 29.7355,-70.93022 41.16663,-106 11.81055,-36.23378 26.37236,-92.27638 24.68571,-95.00544 -0.66481,-1.07568 -743.19762,-1.44961 -747.20072,-0.37628 -2.66047,0.71334 -2.74933,0.0574 3.37062,24.88172 15.19722,61.64442 32.7137,111.98532 61.41444,176.5 11.20669,25.19085 32.73617,66.19951 34.54014,65.79091 0.70642,-0.16 5.01816,-3.909 9.58164,-8.33118 4.56348,-4.42214 19.77224,-19.02431 33.79724,-32.44925 28.04263,-26.84283 39.4988,-37.84895 60.5,-58.12328 7.7,-7.43349 26.15,-25.1722 41,-39.41936 45.01931,-43.1917 71.75052,-68.84497 98.5,-94.52795 14.025,-13.46582 26.60727,-25.49528 27.9606,-26.73213 l 2.46059,-2.24882 9.03941,8.80348 c 10.14197,9.87727 28.38423,27.46293 48.53856,46.7915 7.42454,7.12035 19.99476,19.24608 27.93382,26.94608 7.93905,7.7 14.97624,14.45 15.63819,15 0.66194,0.55 6.09172,5.73177 12.06618,11.51505 5.97446,5.78328 17.16957,16.58328 24.87803,24 7.70846,7.41672 19.86077,19.10995 27.00514,25.98495 7.14437,6.875 24.46245,23.51456 38.48462,36.9768 23.6839,22.73815 33.45759,32.15421 59.49486,57.31788 5.5,5.31543 10.3008,9.67363 10.66844,9.68493 0.36764,0.011 1.57489,-1.4463 2.68278,-3.2389 z M 528.89285,550.76509 c -9.13113,-2.30875 -9.71104,-2.81798 -9.71104,-8.52755 0,-2.73065 -0.19115,-4.96482 -0.42477,-4.96482 -0.23362,0 -8.67112,0.8808 -18.75,1.95733 -32.07781,3.42626 -60.63766,4.48589 -83.31626,3.09121 -11.00493,-0.67677 -25.85897,-1.97706 -33.00897,-2.88952 l -13,-1.65902 -0.27195,-18.71845 -0.27195,-18.71846 -11.72805,-0.28154 -11.72805,-0.28155 -0.2706,-20.21809 -0.27061,-20.21808 11.77061,-0.28192 11.7706,-0.28191 v -23 -23 l -10.5,-0.15116 c -5.775,-0.0831 -11.0625,-0.19563 -11.75,-0.25 -0.95497,-0.0755 -1.25,-4.81188 -1.25,-20.0671 v -19.96827 l 11.75,-0.28173 11.75,-0.28174 0.28362,-10.12661 0.28362,-10.12662 11.71638,-2.28385 c 6.44401,-1.25613 12.04699,-2.77415 12.45107,-3.37339 0.40408,-0.59924 0.74158,-5.02703 0.75,-9.83953 0.008,-4.8125 0.25824,-8.75 0.55515,-8.75 0.29691,0 2.31231,0.90425 4.47868,2.00945 4.94018,2.52029 14.2116,4.60341 24.14295,5.42449 7.9413,0.65655 21.58587,-0.87894 67.32417,-7.57632 18.63795,-2.72912 21.74774,-2.94703 27.79788,-1.94787 8.47409,1.39946 14.83818,4.33485 19.95853,9.20572 l 3.95082,3.75833 3.56708,-3.56709 c 4.3224,-4.32239 11.62767,-7.75531 19.88204,-9.34302 6.49797,-1.24987 3.03239,-1.63413 73.16037,8.11201 12.08548,1.67959 15.84792,1.82908 24.27363,0.96444 11.64487,-1.19499 17.98453,-2.61663 23.13417,-5.18773 2.04059,-1.01883 4.1612,-1.85241 4.71248,-1.85241 0.57581,0 1.12465,3.89517 1.28983,9.15403 l 0.28753,9.15402 11,3.09598 11,3.09597 0.28498,10.25 0.28499,10.25 h 11.98572 11.98572 l -0.2707,20.06732 -0.27071,20.06732 -11.5,0.18268 -11.5,0.18268 -0.26843,23.25 -0.26843,23.25 h 12.01843 12.01843 v 20.5 20.5 h -11.97793 -11.97794 l -0.27206,18.75 -0.27207,18.75 -13.5,1.67849 c -7.425,0.92317 -22.3339,2.23076 -33.1309,2.90576 -22.18729,1.38708 -50.20526,0.33119 -82.8691,-3.12302 -10.175,-1.07601 -18.8375,-1.95747 -19.25,-1.9588 -0.4125,-0.001 -0.75,2.40986 -0.75,5.35822 v 5.36066 l -5.75,1.72853 c -7.88681,2.3709 -24.15803,2.90874 -31.53896,1.04253 z m 26.53896,-7.63078 3.75,-0.93868 v -6.98051 c 0,-6.72575 0.0821,-6.96161 2.25,-6.46287 4.01659,0.92407 39.79053,4.39616 57.75,5.60502 20.80188,1.40019 56.09189,0.67013 74,-1.53086 6.875,-0.84497 13.0625,-1.54022 13.75,-1.545 0.99034,-0.007 1.25,-18.05859 1.25,-86.9017 0,-95.07595 0.4415,-88.10699 -5.58179,-88.10699 h -2.41821 v 80.13192 80.13193 l -3.5,3.30092 c -2.36822,2.23352 -3.50719,4.2119 -3.52224,6.11808 l -0.0222,2.81715 -1.72777,-2.22902 -1.72776,-2.22903 -6.24945,1.95113 c -7.25153,2.26397 -26.7199,4.43274 -32.66739,3.63912 -13.72923,-1.83198 -37.00893,-5.0153 -55.99687,-7.65712 -19.06353,-2.65235 -22.64029,-2.89898 -27.5,-1.89625 -7.22618,1.49102 -12.06554,3.99458 -15.68097,8.11227 -2.59227,2.9524 -3.46834,3.30894 -8.13053,3.30892 -4.58834,-2e-5 -5.57679,-0.38495 -8.10969,-3.15811 -6.09871,-6.67724 -18.44552,-10.26789 -28.9151,-8.40899 -3.1625,0.56151 -21.05,3.09531 -39.75,5.63065 -32.92492,4.46397 -34.35372,4.57496 -45.18672,3.51009 -12.66639,-1.24509 -22.07261,-3.83147 -27.55243,-7.57597 -7.14975,-4.88559 -6.75171,0.25652 -6.71005,-86.6852 l 0.0375,-78.31249 -4.25239,0.29157 c -2.33882,0.16036 -4.4018,0.44097 -4.58441,0.62358 -0.41922,0.41922 -0.45396,172.71574 -0.0349,173.13479 1.16411,1.16412 31.0205,3.67853 49.28339,4.1505 25.19569,0.65113 57.65919,-1.34539 97,-5.96556 1.79161,-0.21041 2.0521,0.49447 2.5,6.76512 l 0.5,7 6.5,1.13094 c 6.69395,1.16469 14.67841,0.87562 21.25,-0.76935 z m -98.43984,-30.89108 c 12.47941,-1.66621 28.97821,-3.96643 36.664,-5.1116 15.79235,-2.35302 28.28457,-2.16962 35.52584,0.52157 2.475,0.91983 4.95,1.77301 5.5,1.89596 0.65888,0.1473 1.08725,-28.23159 1.25578,-83.19315 0.28993,-94.55286 1.03902,-86.45662 -8.39911,-90.77754 -8.28096,-3.79115 -14.24993,-3.8658 -37.85667,-0.47343 -49.24439,7.07657 -52.54857,7.42935 -64.5,6.8864 -6.325,-0.28734 -13.86064,-1.09346 -16.74587,-1.79137 -2.88523,-0.69792 -5.46786,-1.04696 -5.73917,-0.77564 -0.27132,0.27131 -0.50811,38.67797 -0.52621,85.34813 -0.0262,67.60021 0.22575,85.02217 1.23917,85.67776 1.80899,1.17026 8.4249,2.94145 14.27208,3.82088 9.24688,1.39075 16.51242,1.01593 39.31016,-2.02797 z m 210.86354,2.09612 c 3.39553,-0.49123 8.68303,-1.41409 11.75,-2.05079 l 5.5763,-1.15764 v -86.53609 c 0,-82.01697 -0.0914,-86.49931 -1.75,-85.83177 -4.02442,1.61971 -17.34435,3.44228 -25.39465,3.47477 -8.47146,0.0342 -32.01188,-2.75367 -60.85535,-7.20701 -7.975,-1.23131 -18.55,-2.24311 -23.5,-2.24843 -7.82352,-0.008 -9.73813,0.35281 -14.64662,2.7633 -3.10564,1.52513 -6.14366,3.37187 -6.75116,4.10386 -0.78631,0.94744 -1.10904,25.35848 -1.12017,84.72703 -0.009,45.86788 -0.008,83.8804 10e-4,84.47228 0.0101,0.64979 2.691,0.16479 6.76678,-1.22418 9.1424,-3.11563 16.90729,-3.00011 42.62171,0.63407 11.62056,1.64232 27.20329,3.8362 34.62829,4.8753 15.46579,2.16438 23.89501,2.47532 32.6737,1.2053 z M 362.96169,479.53498 c -0.30446,-13.85619 -0.52269,-14.29658 -6.35897,-12.83176 -2.39944,0.60222 -2.42091,0.71827 -2.42091,13.08855 v 12.48095 h 4.52988 4.52987 z m 369,-0.0123 -0.27988,-12.74996 h -4 -4 l -0.27988,12.75 -0.27987,12.75 h 4.55975 4.55975 z M 362.68181,392.27272 v -12.5 l -4.25,-0.3075 -4.25,-0.3075 v 13.115 13.115 l 4.25,-0.3075 4.25,-0.3075 z m 369.27988,0.25 -0.27988,-12.75 h -4 -4 l -0.27988,12.75 -0.27987,12.75 h 4.55975 4.55975 z"
       id="path1" />
  </g>
</svg>
