<?xml version="1.0" encoding="iso-8859-1"?>
<!-- Uploaded to: SVG Repo, www.svgrepo.com, Generator: SVG Repo Mixer Tools -->
<svg fill="#000000" height="800px" width="800px" version="1.1" id="Capa_1" xmlns="http://www.w3.org/2000/svg" xmlns:xlink="http://www.w3.org/1999/xlink" 
	 viewBox="0 0 360 360" xml:space="preserve">
<g id="XMLID_91_">
	<path id="XMLID_92_" d="M344.925,121.647h-49.851V77.834L212.052,0H15.075v360h280v-55.626h49.851V121.647z M314.925,274.374h-210
		V151.647h210V274.374z"/>
	<polygon id="XMLID_103_" points="133.059,240.554 145.115,240.554 145.115,188.722 165.091,188.722 165.091,178.074 
		113.083,178.074 113.083,188.722 133.059,188.722 	"/>
	<polygon id="XMLID_104_" points="184.977,213.89 213.313,213.89 213.313,240.554 225.369,240.554 225.369,178.074 213.313,178.074 
		213.313,203.33 184.977,203.33 184.977,178.074 172.833,178.074 172.833,240.554 184.977,240.554 	"/>
	<polygon id="XMLID_105_" points="250.537,199.194 266.641,229.994 273.241,229.994 289.345,199.194 289.345,240.554 
		301.489,240.554 301.489,178.074 288.553,178.074 269.897,213.626 251.417,178.074 238.393,178.074 238.393,240.554 
		250.537,240.554 	"/>
</g>
</svg>