<svg xmlns="http://www.w3.org/2000/svg" xmlns:xlink="http://www.w3.org/1999/xlink" xmlns:inkscape="http://www.inkscape.org/namespaces/inkscape" version="1.1" width="17.8875" height="22.995" viewBox="0 0 17.8875 22.995">
<g>
<path d="M6.973 5.078C6.914 5.078 6.875 5.113 6.859 5.152L6.621 5.684C6.621 5.684 6.605 5.691 6.598 5.691 6.59 5.691 6.582 5.684 6.574 5.672 6.574 5.648 6.539 5.578 6.477 5.43L6.402 5.258C6.375 5.191 6.352 5.152 6.344 5.137 6.312 5.094 6.285 5.086 6.246 5.078 6.246 5.078 6.246 5.07 6.246 5.062 6.246 5.055 6.246 5.055 6.246 5.047H6.285C6.328 5.047 6.367 5.047 6.402 5.047 6.441 5.047 6.508 5.047 6.555 5.047H6.582C6.582 5.047 6.582 5.055 6.582 5.062V5.078C6.555 5.078 6.484 5.078 6.484 5.121 6.484 5.129 6.484 5.145 6.484 5.16L6.645 5.535 6.777 5.219C6.777 5.219 6.793 5.152 6.793 5.137 6.793 5.102 6.77 5.086 6.703 5.078 6.703 5.078 6.703 5.07 6.703 5.062V5.047H6.727C6.727 5.047 6.785 5.047 6.852 5.047 6.867 5.047 6.914 5.047 6.938 5.047H6.98C6.98 5.047 6.98 5.055 6.98 5.062V5.078ZM6.973 5.078" fill="#231f20"/>
<path d="M7.641 5.676C7.445 5.676 7.348 5.676 7.316 5.676 7.297 5.676 7.25 5.676 7.227 5.676 7.199 5.676 7.137 5.676 7.07 5.676H7.035C7.035 5.676 7.035 5.672 7.035 5.664 7.035 5.656 7.035 5.648 7.035 5.648 7.086 5.648 7.125 5.633 7.129 5.625 7.137 5.609 7.145 5.586 7.152 5.527 7.152 5.496 7.152 5.469 7.152 5.43 7.152 5.387 7.152 5.324 7.152 5.25V5.152C7.152 5.086 7.117 5.086 7.047 5.078V5.062 5.047H7.086C7.086 5.047 7.176 5.047 7.297 5.047 7.41 5.047 7.512 5.047 7.535 5.047 7.551 5.047 7.598 5.047 7.602 5.047 7.617 5.047 7.625 5.047 7.625 5.062V5.203H7.617C7.617 5.203 7.609 5.203 7.602 5.203 7.559 5.129 7.543 5.121 7.504 5.094 7.492 5.086 7.477 5.078 7.453 5.078 7.445 5.078 7.422 5.078 7.371 5.078 7.324 5.078 7.305 5.078 7.297 5.078L7.289 5.102C7.289 5.113 7.289 5.145 7.289 5.227V5.309H7.312C7.312 5.309 7.363 5.309 7.387 5.309 7.41 5.309 7.438 5.289 7.453 5.266 7.453 5.266 7.469 5.219 7.469 5.211 7.469 5.211 7.484 5.211 7.492 5.211H7.504C7.504 5.234 7.504 5.289 7.504 5.348 7.504 5.379 7.504 5.445 7.504 5.477 7.504 5.477 7.5 5.477 7.492 5.477H7.477C7.477 5.422 7.461 5.387 7.414 5.363 7.395 5.355 7.371 5.348 7.348 5.348 7.332 5.348 7.316 5.348 7.305 5.348V5.512C7.305 5.551 7.305 5.574 7.312 5.586 7.312 5.594 7.332 5.617 7.348 5.625 7.355 5.625 7.371 5.625 7.41 5.625H7.5C7.5 5.625 7.559 5.625 7.566 5.617 7.59 5.602 7.648 5.543 7.664 5.484 7.672 5.484 7.68 5.484 7.688 5.484 7.691 5.484 7.699 5.484 7.707 5.484V5.648C7.707 5.648 7.699 5.664 7.68 5.664ZM7.641 5.676" fill="#231f20"/>
<path d="M8.406 5.242C8.406 5.242 8.398 5.242 8.391 5.242 8.375 5.203 8.359 5.168 8.348 5.152 8.316 5.121 8.293 5.102 8.227 5.094 8.211 5.094 8.172 5.094 8.164 5.094V5.371C8.164 5.414 8.164 5.469 8.164 5.566 8.164 5.641 8.195 5.641 8.277 5.648 8.277 5.656 8.277 5.664 8.277 5.664 8.277 5.664 8.277 5.672 8.277 5.676H8.25C8.203 5.676 8.113 5.676 8.09 5.676 8.066 5.676 7.977 5.676 7.934 5.676V5.664C7.934 5.664 7.934 5.656 7.934 5.648 8.031 5.648 8.047 5.617 8.047 5.586 8.047 5.566 8.047 5.484 8.047 5.398V5.168C8.047 5.168 8.047 5.109 8.047 5.094 8.023 5.094 7.965 5.094 7.949 5.094 7.895 5.113 7.859 5.152 7.82 5.234H7.805 7.789V5.07C7.789 5.07 7.789 5.055 7.812 5.055 7.828 5.055 7.852 5.055 7.879 5.055 7.902 5.055 7.992 5.055 8.113 5.055 8.262 5.055 8.375 5.055 8.406 5.055 8.422 5.055 8.43 5.055 8.438 5.055 8.438 5.055 8.438 5.07 8.438 5.078V5.242C8.438 5.242 8.43 5.25 8.422 5.25ZM8.406 5.242" fill="#231f20"/>
<path d="M6.941 6.234C6.941 6.234 6.938 6.234 6.922 6.234 6.906 6.195 6.891 6.156 6.875 6.141 6.852 6.113 6.824 6.09 6.754 6.082 6.742 6.082 6.703 6.082 6.695 6.082V6.359C6.695 6.406 6.695 6.457 6.695 6.555 6.695 6.629 6.734 6.629 6.809 6.637 6.809 6.645 6.809 6.652 6.809 6.652 6.809 6.652 6.809 6.66 6.809 6.668H6.777C6.734 6.668 6.645 6.668 6.621 6.668 6.598 6.668 6.508 6.668 6.457 6.668V6.652C6.457 6.652 6.457 6.645 6.457 6.637 6.555 6.637 6.566 6.609 6.566 6.578 6.566 6.555 6.566 6.473 6.566 6.391V6.156C6.566 6.156 6.566 6.098 6.566 6.082 6.547 6.082 6.484 6.082 6.473 6.082 6.418 6.105 6.379 6.141 6.344 6.227H6.328C6.328 6.227 6.32 6.227 6.312 6.227V6.059C6.312 6.059 6.312 6.047 6.336 6.047 6.359 6.047 6.375 6.047 6.402 6.047 6.426 6.047 6.516 6.047 6.637 6.047 6.785 6.047 6.898 6.047 6.93 6.047 6.941 6.047 6.957 6.047 6.957 6.047 6.957 6.047 6.957 6.059 6.957 6.066V6.234C6.957 6.234 6.949 6.238 6.941 6.238ZM6.941 6.234" fill="#231f20"/>
<path d="M7.664 6.668C7.477 6.668 7.371 6.668 7.34 6.668 7.316 6.668 7.273 6.668 7.25 6.668 7.227 6.668 7.16 6.668 7.094 6.668H7.055C7.055 6.668 7.055 6.66 7.055 6.652 7.055 6.645 7.055 6.637 7.055 6.637 7.109 6.637 7.145 6.621 7.152 6.613 7.168 6.602 7.168 6.578 7.176 6.516 7.176 6.488 7.176 6.457 7.176 6.422 7.176 6.375 7.176 6.316 7.176 6.238 7.176 6.188 7.176 6.164 7.176 6.141 7.176 6.074 7.137 6.074 7.07 6.066V6.051 6.039H7.102C7.102 6.039 7.191 6.039 7.312 6.039 7.422 6.039 7.527 6.039 7.551 6.039 7.566 6.039 7.609 6.039 7.617 6.039 7.633 6.039 7.641 6.039 7.641 6.051V6.195H7.633C7.633 6.195 7.625 6.195 7.617 6.195 7.582 6.121 7.559 6.113 7.52 6.082 7.504 6.074 7.492 6.066 7.469 6.066 7.461 6.066 7.438 6.066 7.379 6.066 7.332 6.066 7.312 6.066 7.312 6.066 7.305 6.066 7.312 6.066 7.305 6.09 7.305 6.105 7.305 6.137 7.305 6.219V6.301H7.324C7.324 6.301 7.387 6.301 7.402 6.301 7.43 6.301 7.453 6.277 7.469 6.254 7.469 6.254 7.484 6.211 7.484 6.203 7.484 6.203 7.5 6.203 7.504 6.203 7.512 6.203 7.52 6.203 7.52 6.203 7.52 6.227 7.52 6.277 7.52 6.336 7.52 6.367 7.52 6.434 7.52 6.465 7.52 6.465 7.512 6.465 7.504 6.465 7.504 6.465 7.492 6.465 7.484 6.465 7.484 6.414 7.469 6.375 7.422 6.352 7.402 6.344 7.379 6.336 7.355 6.336 7.34 6.336 7.324 6.336 7.312 6.336V6.504C7.312 6.539 7.312 6.562 7.312 6.578 7.312 6.586 7.332 6.609 7.348 6.613 7.355 6.613 7.379 6.613 7.41 6.613H7.5C7.5 6.613 7.551 6.613 7.566 6.609 7.59 6.594 7.648 6.531 7.672 6.473 7.672 6.473 7.688 6.473 7.691 6.473H7.707V6.637C7.707 6.637 7.699 6.652 7.68 6.652ZM7.664 6.668" fill="#231f20"/>
<path d="M8.113 6.684C8.062 6.684 8 6.66 7.965 6.645 7.965 6.645 7.949 6.645 7.941 6.645 7.941 6.645 7.91 6.652 7.895 6.668 7.879 6.668 7.867 6.668 7.859 6.645 7.859 6.629 7.875 6.594 7.875 6.57 7.875 6.555 7.875 6.488 7.875 6.465 7.875 6.457 7.887 6.449 7.902 6.449H7.91C7.926 6.473 7.949 6.547 7.973 6.57 8.008 6.613 8.066 6.637 8.113 6.637 8.16 6.637 8.195 6.629 8.219 6.609 8.25 6.578 8.254 6.562 8.254 6.531 8.254 6.512 8.254 6.488 8.242 6.473 8.227 6.449 8.211 6.441 8.172 6.426 8.145 6.414 8.047 6.391 8.016 6.367 7.973 6.344 7.949 6.328 7.926 6.309 7.895 6.27 7.887 6.227 7.887 6.195 7.887 6.09 7.973 6.016 8.082 6.016 8.129 6.016 8.18 6.016 8.234 6.059 8.242 6.047 8.254 6.039 8.27 6.023 8.293 6.023 8.301 6.031 8.301 6.039 8.301 6.051 8.293 6.09 8.293 6.129 8.293 6.141 8.301 6.211 8.301 6.219 8.301 6.219 8.285 6.227 8.277 6.227H8.262C8.25 6.195 8.234 6.141 8.211 6.113 8.18 6.074 8.145 6.059 8.082 6.059 8.023 6.059 7.973 6.098 7.973 6.148 7.973 6.203 8.016 6.227 8.047 6.238 8.074 6.246 8.105 6.262 8.145 6.277 8.188 6.293 8.227 6.309 8.242 6.316 8.316 6.352 8.348 6.406 8.348 6.48 8.348 6.602 8.242 6.668 8.121 6.668ZM8.113 6.684" fill="#231f20"/>
<path d="M7.199 7.656C7.004 7.656 6.906 7.656 6.875 7.656 6.852 7.656 6.809 7.656 6.785 7.656 6.754 7.656 6.695 7.656 6.629 7.656H6.59C6.59 7.656 6.59 7.648 6.59 7.641 6.59 7.637 6.59 7.629 6.59 7.629 6.645 7.629 6.68 7.613 6.688 7.605 6.695 7.59 6.703 7.566 6.711 7.508 6.711 7.477 6.711 7.449 6.711 7.41 6.711 7.363 6.711 7.305 6.711 7.23V7.133C6.711 7.066 6.672 7.066 6.605 7.059V7.043 7.027H6.645C6.645 7.027 6.734 7.027 6.852 7.027 6.965 7.027 7.07 7.027 7.094 7.027 7.109 7.027 7.152 7.027 7.16 7.027 7.176 7.027 7.184 7.027 7.184 7.043V7.184H7.176C7.176 7.184 7.168 7.184 7.16 7.184 7.117 7.109 7.102 7.102 7.062 7.074 7.047 7.066 7.035 7.059 7.012 7.059 7.004 7.059 6.98 7.059 6.93 7.059 6.883 7.059 6.859 7.059 6.852 7.059L6.848 7.078C6.848 7.094 6.848 7.125 6.848 7.207V7.289H6.867C6.867 7.289 6.922 7.289 6.941 7.289 6.965 7.289 6.996 7.266 7.012 7.246 7.012 7.246 7.027 7.199 7.027 7.191 7.027 7.191 7.039 7.191 7.047 7.191H7.062C7.062 7.215 7.062 7.266 7.062 7.328 7.062 7.359 7.062 7.426 7.062 7.453 7.062 7.453 7.055 7.453 7.047 7.453H7.035C7.035 7.402 7.02 7.363 6.973 7.344 6.949 7.336 6.93 7.328 6.906 7.328 6.891 7.328 6.875 7.328 6.859 7.328V7.492C6.859 7.531 6.859 7.551 6.867 7.566 6.867 7.574 6.891 7.598 6.906 7.605 6.914 7.605 6.93 7.605 6.965 7.605H7.055C7.055 7.605 7.117 7.605 7.125 7.598 7.145 7.582 7.207 7.523 7.223 7.461 7.227 7.461 7.234 7.461 7.242 7.461 7.25 7.461 7.258 7.461 7.266 7.461V7.629C7.266 7.629 7.258 7.641 7.234 7.641ZM7.199 7.656" fill="#231f20"/>
<path d="M8.121 7.059C8.055 7.059 8 7.094 8 7.199V7.523C8 7.523 8 7.629 8 7.664 7.992 7.664 7.977 7.672 7.973 7.672 7.973 7.672 7.965 7.672 7.957 7.664L7.504 7.184V7.281 7.461C7.504 7.477 7.504 7.508 7.504 7.539 7.504 7.574 7.52 7.59 7.535 7.605 7.559 7.629 7.598 7.629 7.617 7.637 7.617 7.637 7.617 7.641 7.617 7.648 7.617 7.648 7.617 7.656 7.617 7.664H7.574C7.535 7.664 7.5 7.664 7.461 7.664 7.43 7.664 7.395 7.664 7.363 7.664H7.34V7.648C7.34 7.648 7.34 7.641 7.34 7.637 7.371 7.637 7.422 7.621 7.438 7.59 7.438 7.574 7.445 7.547 7.445 7.516V7.289C7.445 7.289 7.445 7.238 7.445 7.199 7.445 7.172 7.445 7.148 7.422 7.133 7.422 7.133 7.41 7.109 7.395 7.102 7.379 7.086 7.34 7.078 7.316 7.074V7.059 7.043H7.332C7.332 7.043 7.414 7.043 7.469 7.043H7.5C7.5 7.043 7.512 7.051 7.52 7.059L7.852 7.418C7.852 7.418 7.91 7.484 7.926 7.508V7.246C7.926 7.246 7.926 7.184 7.926 7.172 7.926 7.141 7.918 7.117 7.902 7.102 7.895 7.086 7.828 7.078 7.797 7.074 7.797 7.074 7.797 7.059 7.797 7.051 7.797 7.051 7.797 7.043 7.797 7.035H7.82C7.82 7.035 7.902 7.035 7.934 7.035 8.008 7.035 8.031 7.035 8.066 7.035H8.09V7.051C8.09 7.051 8.09 7.059 8.09 7.066ZM8.121 7.059" fill="#231f20"/>
<path d="M10.207 5.07C10.145 5.07 10.086 5.109 10.086 5.211V5.535C10.086 5.535 10.086 5.641 10.086 5.676 10.078 5.676 10.062 5.684 10.062 5.684 10.062 5.684 10.055 5.684 10.047 5.676L9.598 5.199V5.297 5.477C9.598 5.488 9.598 5.52 9.598 5.551 9.598 5.586 9.613 5.602 9.629 5.617 9.652 5.641 9.688 5.641 9.711 5.648 9.711 5.648 9.711 5.656 9.711 5.664 9.711 5.664 9.711 5.672 9.711 5.676H9.66C9.621 5.676 9.582 5.676 9.547 5.676 9.516 5.676 9.477 5.676 9.457 5.676H9.434V5.664C9.434 5.664 9.434 5.656 9.434 5.648 9.465 5.648 9.516 5.633 9.531 5.602 9.539 5.586 9.539 5.559 9.539 5.527V5.301C9.539 5.301 9.539 5.25 9.539 5.211 9.539 5.184 9.531 5.16 9.516 5.145 9.516 5.145 9.5 5.121 9.484 5.113 9.473 5.102 9.434 5.094 9.41 5.086V5.07 5.055H9.426C9.426 5.055 9.508 5.055 9.562 5.055H9.59C9.59 5.055 9.605 5.062 9.613 5.07L9.941 5.43C9.941 5.43 10.004 5.496 10.02 5.52V5.258C10.02 5.258 10.02 5.199 10.02 5.184 10.02 5.152 10.012 5.129 9.996 5.113 9.988 5.102 9.922 5.094 9.891 5.086 9.891 5.086 9.891 5.07 9.891 5.062 9.891 5.062 9.891 5.055 9.891 5.047H9.914C9.914 5.047 9.996 5.047 10.027 5.047 10.102 5.047 10.125 5.047 10.16 5.047H10.184V5.062C10.184 5.062 10.184 5.07 10.184 5.078ZM10.207 5.07" fill="#231f20"/>
<path d="M10.867 5.594C10.805 5.656 10.715 5.691 10.641 5.691 10.566 5.691 10.484 5.664 10.422 5.602 10.355 5.543 10.324 5.453 10.324 5.363 10.324 5.273 10.355 5.191 10.422 5.121 10.492 5.055 10.574 5.023 10.648 5.023 10.699 5.023 10.754 5.039 10.812 5.07 10.91 5.129 10.973 5.234 10.973 5.348 10.973 5.438 10.934 5.527 10.875 5.586ZM10.762 5.129C10.73 5.086 10.691 5.062 10.633 5.062 10.582 5.062 10.543 5.086 10.512 5.129 10.477 5.176 10.453 5.258 10.453 5.355 10.453 5.453 10.477 5.527 10.504 5.578 10.535 5.625 10.574 5.648 10.633 5.648 10.699 5.648 10.738 5.617 10.77 5.559 10.797 5.512 10.805 5.445 10.805 5.355 10.805 5.25 10.785 5.176 10.746 5.129ZM10.762 5.129" fill="#231f20"/>
<path d="M11.766 5.078C11.707 5.078 11.668 5.113 11.652 5.152L11.414 5.684C11.414 5.684 11.398 5.691 11.391 5.691 11.383 5.691 11.375 5.684 11.367 5.672 11.367 5.648 11.332 5.578 11.27 5.43L11.195 5.258C11.164 5.191 11.145 5.152 11.137 5.137 11.105 5.094 11.074 5.086 11.039 5.078 11.039 5.078 11.039 5.07 11.039 5.062 11.039 5.055 11.039 5.055 11.039 5.047H11.074C11.121 5.047 11.16 5.047 11.188 5.047 11.227 5.047 11.293 5.047 11.34 5.047H11.359C11.359 5.047 11.359 5.055 11.359 5.062V5.078C11.332 5.078 11.262 5.078 11.262 5.121 11.262 5.129 11.262 5.145 11.262 5.16L11.422 5.535 11.555 5.219C11.555 5.219 11.57 5.152 11.57 5.137 11.57 5.102 11.547 5.086 11.48 5.078 11.48 5.078 11.48 5.07 11.48 5.062V5.047H11.504C11.504 5.047 11.562 5.047 11.629 5.047 11.637 5.047 11.691 5.047 11.715 5.047H11.758C11.758 5.047 11.758 5.055 11.758 5.062V5.078ZM11.766 5.078" fill="#231f20"/>
<path d="M10.004 6.234C10.004 6.234 9.996 6.234 9.98 6.234 9.965 6.195 9.949 6.156 9.938 6.141 9.914 6.113 9.883 6.09 9.816 6.082 9.801 6.082 9.762 6.082 9.754 6.082V6.359C9.754 6.406 9.754 6.457 9.754 6.555 9.754 6.629 9.793 6.629 9.867 6.637 9.867 6.645 9.867 6.652 9.867 6.652 9.867 6.652 9.867 6.66 9.867 6.668H9.84C9.793 6.668 9.703 6.668 9.68 6.668 9.66 6.668 9.566 6.668 9.516 6.668V6.652C9.516 6.652 9.516 6.645 9.516 6.637 9.613 6.637 9.629 6.609 9.629 6.578 9.629 6.555 9.629 6.473 9.629 6.391V6.156C9.629 6.156 9.629 6.098 9.629 6.082 9.605 6.082 9.547 6.082 9.531 6.082 9.477 6.105 9.441 6.141 9.402 6.227H9.387C9.387 6.227 9.379 6.227 9.375 6.227V6.059C9.375 6.059 9.375 6.047 9.395 6.047 9.418 6.047 9.434 6.047 9.465 6.047 9.484 6.047 9.574 6.047 9.695 6.047 9.848 6.047 9.957 6.047 9.988 6.047 10.004 6.047 10.02 6.047 10.02 6.047 10.02 6.047 10.02 6.059 10.02 6.066V6.234C10.02 6.234 10.012 6.238 10.004 6.238ZM10.004 6.234" fill="#231f20"/>
<path d="M10.762 6.668H10.707C10.707 6.668 10.641 6.668 10.602 6.668 10.543 6.668 10.469 6.668 10.438 6.668 10.438 6.668 10.438 6.66 10.438 6.652 10.438 6.652 10.438 6.645 10.438 6.637 10.5 6.637 10.527 6.621 10.527 6.602 10.527 6.594 10.527 6.57 10.504 6.516 10.484 6.473 10.477 6.449 10.469 6.434H10.453 10.25C10.25 6.434 10.223 6.496 10.207 6.555 10.207 6.57 10.207 6.586 10.207 6.594 10.207 6.613 10.227 6.637 10.297 6.637V6.652C10.297 6.652 10.297 6.66 10.297 6.668H10.281C10.234 6.668 10.223 6.668 10.168 6.668 10.137 6.668 10.055 6.668 10.035 6.668V6.652C10.035 6.652 10.035 6.645 10.035 6.637 10.07 6.629 10.109 6.613 10.125 6.594 10.129 6.578 10.168 6.516 10.207 6.426 10.242 6.344 10.281 6.238 10.305 6.195 10.332 6.141 10.34 6.121 10.348 6.105 10.363 6.074 10.379 6.051 10.379 6.039L10.402 6.023C10.41 6.023 10.422 6.023 10.43 6.039 10.43 6.051 10.445 6.059 10.445 6.066 10.484 6.156 10.512 6.234 10.559 6.336 10.582 6.391 10.598 6.426 10.617 6.488 10.633 6.523 10.648 6.547 10.664 6.586 10.688 6.629 10.723 6.629 10.762 6.645 10.762 6.645 10.762 6.652 10.762 6.66 10.762 6.668 10.762 6.668 10.762 6.676ZM10.363 6.164C10.363 6.164 10.324 6.246 10.316 6.27 10.281 6.352 10.273 6.383 10.266 6.391H10.453C10.453 6.391 10.395 6.238 10.363 6.164ZM10.363 6.164" fill="#231f20"/>
<path d="M11.734 6.668H11.48 11.414V6.652C11.414 6.645 11.414 6.645 11.414 6.637 11.43 6.637 11.457 6.637 11.473 6.637 11.504 6.621 11.512 6.602 11.512 6.562V6.105L11.375 6.398C11.375 6.398 11.348 6.465 11.332 6.504 11.301 6.57 11.285 6.621 11.277 6.645 11.277 6.66 11.262 6.66 11.254 6.66 11.25 6.66 11.242 6.66 11.234 6.645 11.219 6.609 11.203 6.586 11.195 6.562L10.984 6.098V6.512C10.984 6.602 11.039 6.645 11.105 6.645V6.66C11.105 6.66 11.105 6.668 11.105 6.676 11.105 6.676 11.082 6.676 11.074 6.676 11.066 6.676 11.023 6.676 10.957 6.676 10.934 6.676 10.895 6.676 10.867 6.676H10.82C10.82 6.676 10.82 6.668 10.82 6.66 10.82 6.66 10.82 6.652 10.82 6.645 10.836 6.645 10.902 6.621 10.91 6.613 10.926 6.602 10.934 6.578 10.934 6.512V6.188C10.934 6.137 10.934 6.113 10.902 6.098 10.895 6.09 10.852 6.082 10.82 6.082V6.066C10.82 6.066 10.82 6.059 10.82 6.051 10.844 6.051 10.887 6.051 10.934 6.051H11.09C11.09 6.051 11.098 6.051 11.105 6.066L11.293 6.496 11.324 6.414C11.352 6.344 11.398 6.238 11.457 6.129 11.473 6.105 11.488 6.066 11.496 6.051H11.734V6.066C11.734 6.066 11.734 6.074 11.734 6.082 11.707 6.082 11.66 6.082 11.645 6.121 11.645 6.137 11.629 6.141 11.629 6.195V6.504C11.629 6.621 11.66 6.629 11.676 6.637 11.676 6.637 11.723 6.645 11.742 6.645 11.742 6.645 11.742 6.652 11.742 6.66 11.742 6.668 11.742 6.668 11.742 6.676ZM11.734 6.668" fill="#231f20"/>
<path d="M9.988 7.23C9.988 7.23 9.98 7.23 9.965 7.23 9.949 7.191 9.938 7.156 9.922 7.141 9.898 7.109 9.867 7.086 9.801 7.078 9.785 7.078 9.75 7.078 9.742 7.078V7.359C9.742 7.402 9.742 7.453 9.742 7.551 9.742 7.629 9.777 7.629 9.852 7.637 9.852 7.641 9.852 7.648 9.852 7.648 9.852 7.648 9.852 7.656 9.852 7.664H9.824C9.777 7.664 9.688 7.664 9.664 7.664 9.645 7.664 9.555 7.664 9.5 7.664V7.648C9.5 7.648 9.5 7.641 9.5 7.637 9.598 7.637 9.613 7.605 9.613 7.574 9.613 7.551 9.613 7.469 9.613 7.387V7.156C9.613 7.156 9.613 7.094 9.613 7.078 9.59 7.078 9.531 7.078 9.516 7.078 9.465 7.102 9.426 7.141 9.387 7.223H9.375C9.375 7.223 9.367 7.223 9.359 7.223V7.059C9.359 7.059 9.359 7.043 9.379 7.043 9.402 7.043 9.418 7.043 9.449 7.043 9.473 7.043 9.562 7.043 9.68 7.043 9.832 7.043 9.941 7.043 9.973 7.043 9.988 7.043 10.004 7.043 10.004 7.043 10.004 7.043 10.004 7.059 10.004 7.066V7.23C10.004 7.23 9.996 7.238 9.988 7.238ZM9.988 7.23" fill="#231f20"/>
<path d="M10.77 7.059C10.707 7.059 10.672 7.094 10.656 7.133L10.414 7.664C10.414 7.664 10.402 7.672 10.395 7.672 10.387 7.672 10.379 7.664 10.371 7.648 10.371 7.629 10.332 7.559 10.273 7.41L10.199 7.238C10.168 7.172 10.145 7.133 10.137 7.117 10.109 7.074 10.078 7.066 10.039 7.059 10.039 7.059 10.039 7.051 10.039 7.043 10.039 7.035 10.039 7.035 10.039 7.027H10.078C10.125 7.027 10.16 7.027 10.191 7.027 10.227 7.027 10.297 7.027 10.34 7.027H10.363C10.363 7.027 10.363 7.035 10.363 7.043V7.059C10.332 7.059 10.266 7.059 10.266 7.102 10.266 7.109 10.266 7.125 10.266 7.141L10.422 7.516 10.559 7.199C10.559 7.199 10.574 7.133 10.574 7.117 10.574 7.078 10.551 7.066 10.484 7.059 10.484 7.059 10.484 7.051 10.484 7.043V7.027H10.504C10.504 7.027 10.566 7.027 10.633 7.027 10.641 7.027 10.691 7.027 10.715 7.027H10.762C10.762 7.027 10.762 7.035 10.762 7.043V7.059ZM10.77 7.059" fill="#231f20"/>
<path d="M11.75 7.656H11.496 11.422V7.641C11.422 7.637 11.422 7.637 11.422 7.629 11.438 7.629 11.465 7.629 11.488 7.629 11.512 7.613 11.527 7.59 11.527 7.551V7.184C11.527 7.184 11.527 7.117 11.527 7.102L11.391 7.395C11.391 7.395 11.359 7.461 11.348 7.5 11.316 7.566 11.301 7.621 11.293 7.641 11.293 7.656 11.277 7.656 11.27 7.656 11.262 7.656 11.254 7.656 11.25 7.641 11.234 7.605 11.219 7.582 11.211 7.559L11 7.094V7.508C11 7.598 11.055 7.641 11.129 7.641V7.656C11.129 7.656 11.129 7.664 11.129 7.672 11.129 7.672 11.105 7.672 11.098 7.672 11.09 7.672 11.047 7.672 10.977 7.672 10.957 7.672 10.918 7.672 10.887 7.672H10.844C10.844 7.672 10.844 7.664 10.844 7.656 10.844 7.656 10.844 7.648 10.844 7.641 10.859 7.641 10.926 7.621 10.934 7.613 10.949 7.598 10.957 7.574 10.957 7.508V7.359 7.184C10.957 7.133 10.957 7.109 10.926 7.094 10.918 7.086 10.875 7.078 10.844 7.078V7.066C10.844 7.066 10.844 7.059 10.844 7.051 10.867 7.051 10.91 7.051 10.957 7.051H11.113C11.113 7.051 11.121 7.051 11.129 7.066L11.316 7.492 11.352 7.41C11.383 7.344 11.43 7.238 11.488 7.125 11.504 7.102 11.52 7.066 11.527 7.051H11.766V7.066C11.766 7.066 11.766 7.074 11.766 7.078 11.742 7.078 11.699 7.078 11.676 7.117 11.676 7.133 11.66 7.141 11.66 7.191V7.5C11.66 7.621 11.691 7.629 11.707 7.637 11.707 7.637 11.75 7.641 11.766 7.641 11.766 7.641 11.766 7.648 11.766 7.656 11.766 7.664 11.766 7.664 11.766 7.672ZM11.75 7.656" fill="#231f20"/>
<path d="M17.816 3.691 17.789 3.391 17.504 3.48C16.805 3.691 16.086 3.801 15.352 3.801 12.816 3.801 10.438 2.484 9.156 .344L8.945 0 8.734 .344C7.453 2.477 5.074 3.801 2.539 3.801 1.805 3.801 1.086 3.699 .395 3.488L.109 3.398 .082 3.699C-.098 5.766 .02 7.852 .449 9.891 .898 12.031 1.672 14.086 2.75 16.012 3.312 17.012 3.957 17.977 4.68 18.887 5.871 20.391 7.258 21.742 8.797 22.891L8.938 22.996 9.082 22.891C10.633 21.734 12.02 20.391 13.207 18.891 13.918 17.992 14.57 17.023 15.133 16.027 16.16 14.203 16.91 12.238 17.367 10.184L17.43 9.891C17.855 7.836 17.984 5.754 17.812 3.699ZM12.672 5.324H13.035V6.031H12.672ZM12.672 7.164H13.035V7.867H12.672ZM9.043 4.582C9.043 4.582 9.191 4.328 9.652 4.328L10.34 4.426 11.254 4.547C11.699 4.547 11.922 4.477 12.051 4.418V8.227C12.051 8.227 11.863 8.348 11.254 8.348L10.379 8.227 9.652 8.129C9.336 8.129 9.156 8.227 9.043 8.324ZM5.922 4.426C6.043 4.484 6.262 4.551 6.68 4.551L7.598 4.434 8.285 4.336C8.742 4.336 8.887 4.574 8.895 4.59V8.332C8.781 8.242 8.602 8.137 8.277 8.137L7.551 8.242 6.672 8.363C6.035 8.363 5.902 8.203 5.902 8.203 5.902 8.203 5.914 4.695 5.914 4.441ZM5.398 4.891C5.465 4.875 5.668 4.828 5.773 4.816V8.242C5.812 8.316 5.969 8.504 6.68 8.504L7.59 8.387 8.277 8.289C8.742 8.289 8.887 8.535 8.895 8.543L8.914 8.527H9.043C9.043 8.527 9.191 8.281 9.652 8.281L10.34 8.379 11.254 8.496C11.984 8.496 12.164 8.309 12.18 8.289L12.191 4.793C12.289 4.824 12.465 4.867 12.523 4.883V8.672C12.336 8.699 11.75 8.773 11.211 8.773 10.43 8.773 9.473 8.656 9.457 8.656L9.375 8.641V8.895C9.297 8.926 9.141 8.969 8.945 8.969 8.75 8.969 8.609 8.918 8.539 8.895V8.641L8.457 8.656C8.457 8.656 7.484 8.773 6.711 8.773 6.164 8.773 5.578 8.699 5.398 8.672ZM4.895 5.332H5.25V6.039H4.895ZM4.895 7.172H5.25V7.875H4.895ZM8.945 22.379C7.5 21.277 6.188 20.012 5.062 18.586 5.062 18.586 5.055 18.57 5.047 18.562L8.945 14.773 12.852 18.57C12.852 18.57 12.848 18.586 12.84 18.594 11.715 20.004 10.402 21.27 8.945 22.371ZM16.902 10.086C16.461 12.066 15.734 13.965 14.742 15.734L8.945 10.156 3.148 15.719C2.113 13.867 1.371 11.895 .938 9.848H16.949ZM16.902 10.086" fill="#231f20"/>
</g>
</svg>
